<svg width="203" height="170" viewBox="0 0 203 170" fill="none" xmlns="http://www.w3.org/2000/svg">
<path fill-rule="evenodd" clip-rule="evenodd" d="M112.424 47.4965L104.858 50.7604C99.6422 38.5548 91.5667 27.7828 81.3137 19.353C75.3681 14.5228 68.7659 10.5625 61.7051 7.5912L64.9114 0C72.6922 3.2732 79.9665 7.63884 86.5146 12.9652C97.7984 22.2287 106.685 34.073 112.424 47.4965ZM145.398 50.7603C150.61 38.5538 158.686 27.7823 168.942 19.3569C174.884 14.5244 181.486 10.564 188.547 7.59506L185.34 0.0038636C177.559 3.27546 170.284 7.64126 163.737 12.9691C152.452 22.2337 143.564 34.0795 137.823 47.5046L145.398 50.7603ZM173.442 43.7132C181.289 35.4415 190.652 28.7541 201.021 24.0139C214.601 17.8535 229.494 15.1493 244.372 16.1424L244.908 7.90007C228.667 6.82725 212.413 9.78613 197.593 16.5133C186.27 21.6941 176.046 28.9982 167.475 38.0301L173.442 43.7132ZM115.239 65.2767C115.225 65.892 115.068 66.4953 114.781 67.0393L34.3354 224.262L31.2445 235.76L47.1936 240.046L45.0506 248L5.2399 237.326L7.38291 229.372L23.2906 233.658L26.3815 222.119L35.3246 45.774C35.365 45.1612 35.5369 44.5645 35.8286 44.0242C36.12 43.4839 36.5243 43.0124 37.0143 42.6419C37.5113 42.2768 38.0842 42.0279 38.6908 41.9137C39.297 41.8 39.921 41.8231 40.5173 41.9826L112.185 61.1872C112.776 61.3447 113.324 61.634 113.788 62.0337C114.253 62.4335 114.62 62.9329 114.863 63.4951C115.125 64.0518 115.254 64.6618 115.239 65.2767ZM105.137 67.8223L43.3197 51.2552L40.3112 110.27C42.3376 110.052 44.3809 110.038 46.4106 110.229C49.7009 110.713 53.0609 110.196 56.0541 108.746C59.1133 107.475 61.7146 105.304 63.5134 102.523C66.1765 98.6363 69.8938 95.5912 74.2285 93.7445C78.4692 91.7148 83.2069 90.9561 87.8696 91.5603C89.5671 91.7733 91.2856 91.7597 92.9798 91.5191L105.137 67.8223ZM45.7512 118.43C43.8006 118.213 41.8291 118.283 39.8991 118.636L35.5719 203.78L88.735 99.885L88.6203 99.8762C88.1283 99.8381 87.6692 99.8026 87.2102 99.8026C83.9372 99.2994 80.5883 99.8022 77.6079 101.245C74.5347 102.531 71.9206 104.715 70.1073 107.509C67.457 111.381 63.7529 114.413 59.4335 116.246C55.185 118.299 50.4271 119.059 45.7512 118.43ZM226.959 233.658L242.867 229.372L245.01 237.326L205.199 248L203.056 240.046L219.005 235.76L215.914 224.262L135.469 67.0393C135.192 66.492 135.041 65.8895 135.027 65.2767C135.013 64.6634 135.135 64.0547 135.386 63.4951C135.63 62.9329 135.997 62.4335 136.461 62.0337C136.925 61.634 137.473 61.3447 138.065 61.1872L209.732 41.9826C210.328 41.8231 210.953 41.8 211.559 41.9137C212.165 42.0279 212.738 42.2768 213.235 42.6419C213.725 43.0124 214.13 43.4839 214.421 44.0242C214.713 44.5645 214.885 45.1612 214.925 45.774L223.868 222.119L226.959 233.658ZM145.154 67.8223L157.27 91.5191C158.964 91.7597 160.683 91.7733 162.38 91.5603C167.043 90.9561 171.78 91.7148 176.021 93.7445C180.355 95.5912 184.073 98.6363 186.736 102.523C188.535 105.304 191.136 107.475 194.196 108.746C197.188 110.196 200.549 110.713 203.839 110.229C205.868 110.038 207.912 110.052 209.938 110.27L206.93 51.2552L145.154 67.8223ZM161.629 99.8762L161.515 99.885L214.678 203.78L210.351 118.636C208.407 118.282 206.421 118.213 204.457 118.43C199.795 119.056 195.051 118.296 190.816 116.246C186.496 114.413 182.792 111.381 180.142 107.509C178.329 104.715 175.715 102.531 172.642 101.245C169.661 99.8022 166.312 99.2994 163.039 99.8026C162.58 99.8026 162.121 99.8381 161.629 99.8762ZM76.8106 43.7131C68.9638 35.442 59.6014 28.7544 49.2317 24.0141C35.6512 17.8579 20.7593 15.1539 5.88126 16.1427L5.3455 7.90032C21.5861 6.82679 37.8403 9.78571 52.6605 16.5136C63.9838 21.6933 74.2076 28.9975 82.778 38.03L76.8106 43.7131Z" fill="#CE2127"/>
</svg>
