<?xml version="1.0" encoding="utf-8"?><svg viewBox="0 0 71 70" xmlns="http://www.w3.org/2000/svg" xmlns:xlink="http://www.w3.org/1999/xlink"><style>:root>svg{display:none}:root>svg:target{display:block}</style><svg viewBox="0 0 18 10" id="arrowdown" xmlns="http://www.w3.org/2000/svg"><path d="M.493.75l8.5 8.5 8.5-8.5"/></svg><svg viewBox="0 0 49 50" id="cups" xmlns="http://www.w3.org/2000/svg"><path fill-rule="evenodd" clip-rule="evenodd" d="M21.61 9.576l-1.526.658a16.686 16.686 0 00-4.746-6.332 16.292 16.292 0 00-3.954-2.372L12.03 0c1.57.66 3.036 1.54 4.356 2.614a18.331 18.331 0 015.224 6.962zm6.648.658a16.663 16.663 0 014.747-6.331 16.242 16.242 0 013.952-2.372l-.646-1.53a17.878 17.878 0 00-4.356 2.614 18.334 18.334 0 00-5.224 6.963l1.527.656zm5.654-1.42a17.952 17.952 0 015.56-3.973 18.219 18.219 0 018.74-1.586l.108-1.662a19.905 19.905 0 00-9.54 1.736 19.633 19.633 0 00-6.071 4.338l1.203 1.146zM22.177 13.16a.803.803 0 01-.092.355L5.866 45.214l-.623 2.318 3.215.864L8.026 50 0 47.848l.432-1.604 3.207.864.623-2.326L6.065 9.23a.862.862 0 01.341-.632.83.83 0 01.706-.133l14.45 3.872a.819.819 0 01.54.465.802.802 0 01.075.36zm-2.036.513l-12.464-3.34-.606 11.898a6.11 6.11 0 011.23-.008 3.342 3.342 0 001.944-.3 3.298 3.298 0 001.504-1.254 4.99 4.99 0 012.16-1.77 4.91 4.91 0 012.75-.44c.342.043.689.04 1.03-.009l2.452-4.777zM8.168 23.877a4.055 4.055 0 00-1.18.042l-.873 17.166 10.719-20.947-.023-.002c-.1-.007-.192-.014-.285-.014-.66-.102-1.335 0-1.936.29-.62.26-1.146.7-1.512 1.263a4.951 4.951 0 01-2.152 1.762 4.853 4.853 0 01-2.758.44zM44.7 47.11l3.208-.865.432 1.604L40.314 50l-.432-1.604 3.216-.864-.623-2.318-16.22-31.698a.832.832 0 01-.016-.715.817.817 0 01.54-.465l14.45-3.872a.832.832 0 01.706.133.862.862 0 01.34.632l1.803 35.553.623 2.327zM28.208 13.673l2.443 4.777c.342.049.688.052 1.03.009a4.91 4.91 0 012.75.44 4.99 4.99 0 012.161 1.77c.363.56.887.998 1.504 1.254.603.293 1.28.397 1.944.3a6.11 6.11 0 011.23.008l-.607-11.898-12.455 3.34zm3.322 6.462l-.023.002 10.718 20.947-.872-17.166a4.105 4.105 0 00-1.188-.042 4.835 4.835 0 01-2.75-.44 4.95 4.95 0 01-2.152-1.762 3.34 3.34 0 00-1.513-1.263 3.294 3.294 0 00-1.936-.29c-.092 0-.185.007-.284.014zM14.43 8.813a17.952 17.952 0 00-5.56-3.971A18.24 18.24 0 00.13 3.255L.02 1.593c3.275-.217 6.552.38 9.54 1.736a19.623 19.623 0 016.072 4.338L14.43 8.813z"/></svg><svg viewBox="0 0 48 48" id="eventsball" xmlns="http://www.w3.org/2000/svg"><path d="M11.461 30.97L23 47.317V48h2v-.683L36.539 30.97C42.905 30.662 48 24.971 48 18c0-7.168-5.383-13-12-13-.776 0-1.567.116-2.36.292C31.452 2.09 27.951 0 24 0c-3.951 0-7.453 2.089-9.64 5.292C13.568 5.117 12.777 5 12 5 5.383 5 0 10.832 0 18c0 6.971 5.095 12.662 11.461 12.97zm2.352-.135c3.107-.513 5.896-2.329 7.794-5.096.455.1.921.163 1.392.206v17.904l-9.186-13.014zM25 25.945a11.01 11.01 0 001.392-.206c1.898 2.766 4.687 4.583 7.794 5.096L25 43.849V25.945zm9.691-18.844A8.713 8.713 0 0136 7c5.514 0 10 4.935 10 11s-4.486 11-10 11c-2.964 0-5.741-1.438-7.633-3.902l.027-.013c.225-.096.444-.201.662-.312a12.304 12.304 0 00.868-.481c.13-.08.255-.167.381-.251a12.182 12.182 0 001.222-.93c.116-.102.227-.21.34-.317a12.193 12.193 0 00.766-.785c.144-.162.282-.328.417-.497.092-.114.185-.225.273-.343.202-.27.395-.548.577-.835.076-.12.144-.247.217-.37.112-.191.223-.383.326-.581a13.995 13.995 0 00.478-1.024c.064-.152.128-.302.187-.457.106-.28.202-.566.289-.855.045-.148.085-.298.125-.448.072-.269.138-.54.194-.815.028-.14.052-.281.076-.423.045-.26.081-.523.111-.788.014-.128.03-.256.041-.385.034-.393.056-.788.056-1.188 0-.489-.03-.97-.079-1.445-.015-.142-.041-.28-.059-.421-.045-.336-.096-.67-.165-.997-.033-.16-.074-.317-.113-.476a13.568 13.568 0 00-.414-1.376 13.55 13.55 0 00-.363-.897c-.042-.095-.072-.194-.116-.287zM24 2c3.438 0 6.476 1.919 8.276 4.834l.03.05c.019.032.035.066.054.098.232.39.435.795.619 1.209a11.611 11.611 0 01.587 1.613c.011.039.018.081.028.12.112.419.195.847.26 1.279A12.11 12.11 0 0133.999 13c0 .348-.019.692-.047 1.032-.01.121-.027.239-.041.359-.025.216-.053.431-.089.643a11.533 11.533 0 01-.211.974c-.037.144-.075.289-.118.431a11.36 11.36 0 01-.174.521c-.048.137-.094.276-.147.411a10.73 10.73 0 01-.272.619c-.084.181-.174.359-.267.535-.093.175-.186.351-.287.52-.076.127-.159.248-.24.371-.093.141-.186.282-.284.418a12.047 12.047 0 01-.896 1.082c-.101.107-.206.208-.31.31-.121.117-.24.236-.366.347-.079.07-.162.133-.242.2a9.807 9.807 0 01-1.885 1.237l-.006.003a9.865 9.865 0 01-.75.332l-.037.015c-.257.1-.52.189-.788.266A9.092 9.092 0 0124 24c-.88 0-1.729-.138-2.542-.374a9.594 9.594 0 01-.788-.266l-.037-.015c-.255-.1-.506-.21-.75-.332l-.006-.003a9.807 9.807 0 01-1.885-1.237c-.081-.067-.164-.13-.242-.2-.126-.111-.245-.229-.366-.347-.105-.102-.209-.203-.31-.31a10.502 10.502 0 01-.618-.718c-.095-.12-.188-.24-.278-.364a10.953 10.953 0 01-.284-.418c-.081-.123-.164-.245-.24-.371-.102-.169-.194-.345-.287-.52a12.208 12.208 0 01-.539-1.154c-.053-.135-.099-.274-.147-.411a11.36 11.36 0 01-.174-.521c-.043-.142-.08-.286-.118-.431a12.405 12.405 0 01-.211-.974 11.297 11.297 0 01-.089-.643c-.014-.12-.031-.238-.041-.359-.029-.34-.047-.683-.047-1.032 0-.486.039-.966.096-1.442.014-.119.032-.236.049-.353.065-.432.149-.861.26-1.28.01-.039.017-.081.028-.12.128-.461.289-.911.472-1.352.036-.088.076-.174.115-.261.184-.414.387-.82.62-1.21.019-.032.035-.066.054-.098l.03-.05C17.524 3.919 20.562 2 24 2zM12 7c.431 0 .868.034 1.309.101-.044.093-.074.192-.116.286a13.234 13.234 0 00-.777 2.273c-.039.158-.08.316-.113.476-.068.328-.12.661-.165.997-.019.141-.045.279-.059.421C12.03 12.03 12 12.511 12 13c0 .4.022.795.056 1.188.011.129.027.257.041.385.03.265.067.527.111.788.024.141.047.283.076.423.056.275.122.546.194.815.04.15.08.3.125.448.088.289.184.575.289.855.058.155.123.305.187.457a14.572 14.572 0 00.478 1.024c.103.197.214.39.326.581.073.123.141.25.217.37.182.287.375.565.577.835.088.117.182.229.273.343a11.733 11.733 0 001.183 1.282c.113.107.223.215.34.317.195.171.398.332.603.489.201.155.409.3.619.441.127.085.252.171.381.251a10.918 10.918 0 00.868.481c.218.11.437.216.662.312l.027.013C17.741 27.562 14.965 29 12 29 6.486 29 2 24.065 2 18S6.486 7 12 7z"/></svg><svg viewBox="0 0 50 50" id="flexman" xmlns="http://www.w3.org/2000/svg"><path fill-rule="evenodd" clip-rule="evenodd" d="M21.616 44.458a.834.834 0 01-.41.459l-3.336 1.656a.832.832 0 01-.37.094h-.833a2.504 2.504 0 00-2.358 1.666h7.358v-1.666a.834.834 0 011.666 0v2.5A.833.833 0 0122.5 50h-9.167a.833.833 0 01-.833-.833 4.173 4.173 0 013.437-4.103l-3.059-4.37a4.977 4.977 0 01.38-6.212l5.034-5.593-.75-6.77-3.045-2.284-.021-.016-5.219-3.261a7.537 7.537 0 01-2.455-2.5L3.667 8.832A2.71 2.71 0 118.286 6l3.122 4.997 1.246.5a.833.833 0 11-.62 1.546l-1.5-.599a.824.824 0 01-.397-.333L6.873 6.889A1.04 1.04 0 005.1 7.972l3.135 5.229a5.844 5.844 0 001.91 1.946l4.033 2.52v-4.201a.833.833 0 011.24-.856L20.2 15h1.083A4.974 4.974 0 0120 11.667V9.344a5.608 5.608 0 01-1.675-7.024l.93-1.86a.832.832 0 011.132-.364 13.777 13.777 0 006.375 1.57h1.155A4.568 4.568 0 0130 10.309v1.359a4.985 4.985 0 01-1.667 3.716v1.284a3.333 3.333 0 11-6.666 0H20a.83.83 0 01-.374-.088l-3.784-1.892v4.071L18.832 21a.835.835 0 01.328.575l.833 7.5a.834.834 0 01-.209.65l-5.284 5.87a3.316 3.316 0 00-.25 4.14l3.52 5.032 1.985-.995-2.19-5.11a.835.835 0 01.282-1.007l5.833-4.167a.832.832 0 011.258.369l2.286 5.714a3.314 3.314 0 003.094 2.096h7.5l-.868-1.737-5.402-.772a.833.833 0 01.237-1.65l5.518.789 2.234-1.49a.837.837 0 01.463-.14h2.5a.834.834 0 01.833.833v9.167a.833.833 0 01-.833.833 4.172 4.172 0 01-4.167-4.167h-8.012a4.975 4.975 0 01-4.643-3.139l-1.89-4.728-4.425 3.16 2.236 5.217c.084.195.09.415.017.615zm4.562-26.613c.313-.312.489-.736.489-1.178v-.292a4.908 4.908 0 01-3.334 0v.292a1.666 1.666 0 002.845 1.178zm1.179-3.821a3.333 3.333 0 00.976-2.357V8.322a10.701 10.701 0 01-4.986-1.496l-1.68 1.12v3.72a3.333 3.333 0 005.69 2.358zM19.816 3.066a3.993 3.993 0 00-.343 2.553c.106.53.32 1.033.63 1.476a.824.824 0 01.264-.288l2.5-1.667a.833.833 0 01.925 0 9.056 9.056 0 005.041 1.527h.334A.833.833 0 0130 7.5v.773a2.89 2.89 0 00.833-2.023 2.917 2.917 0 00-2.916-2.917h-1.155a15.466 15.466 0 01-6.386-1.388l-.56 1.12zM40.25 38.333l-1.676 1.12 1.33 2.678c.06.114.094.24.096.369v.833a2.506 2.506 0 001.667 2.358v-7.358H40.25zm-9.726-23.27L38.182 12l-1.074-4.298a2.552 2.552 0 014.95-1.238l1.601 6.388a3.312 3.312 0 01-1.742 3.79L32.45 21.37l-.78 7.797.578 6.364a.833.833 0 01-.754.906h-.076a.833.833 0 01-.83-.759L30.073 30H22.5a.833.833 0 110-1.667h7.583l.755-7.583a.834.834 0 01.456-.663l4.314-2.156-1.072-2.681-3.394 1.36a.833.833 0 11-.618-1.547zm9.515-8.738a.885.885 0 00-1.313.972l1.25 5a.834.834 0 01-.5.977l-3.393 1.357 1.021 2.552 4.063-2.031a1.656 1.656 0 00.871-1.894l-1.596-6.389a.885.885 0 00-.403-.544zM10.833 21.667H4.167a.833.833 0 00-.834.833v4.32a2.473 2.473 0 00-.833-.153 2.5 2.5 0 102.5 2.5v-2.5h5v2.653a2.473 2.473 0 00-.833-.153 2.5 2.5 0 102.5 2.5V22.5a.833.833 0 00-.834-.833zM2.5 30a.833.833 0 110-1.666.833.833 0 010 1.666zM5 23.333h5V25H5v-1.667zM9.167 32.5a.833.833 0 110-1.666.833.833 0 010 1.666zm34.803-9.605l4.334-2.5a.834.834 0 011.139.305 4.172 4.172 0 01-1.526 5.692l-2.167 1.25 2.084 3.608a2.492 2.492 0 11-2.617-1.2l-1.33-2.295-.834-1.443a2.499 2.499 0 01.917-3.417zm2.185 10.282a.833.833 0 10-.969-1.355.833.833 0 00.97 1.355zm-1.239-6.979l2.167-1.25a2.5 2.5 0 001.206-2.621l-3.484 2.011a.832.832 0 00-.306 1.139l.417.721zm-32.853-20.4h.833v.833a.834.834 0 001.666 0v-.833h.834a.834.834 0 000-1.667h-.834v-.833a.833.833 0 10-1.666 0v.833h-.834a.833.833 0 100 1.667zM4.167 39.167H5a.833.833 0 110 1.666h-.833v.834a.834.834 0 01-1.667 0v-.834h-.833a.834.834 0 010-1.666H2.5v-.834a.833.833 0 011.667 0v.834zm32.5-5.834a.834.834 0 00.833-.833v-.833h.833a.833.833 0 100-1.667H37.5v-.833a.834.834 0 00-1.667 0V30H35a.833.833 0 000 1.667h.833v.833a.834.834 0 00.834.833zm12.222-22.921a2.5 2.5 0 11-2.777-4.156 2.5 2.5 0 012.777 4.156zm-.926-2.772a.834.834 0 10-.926 1.387.834.834 0 00.926-1.387zM1.667 1.667a.833.833 0 100-1.667.833.833 0 000 1.667zM3.728 14.13a.833.833 0 11-1.667 0 .833.833 0 011.667 0zm35.439 10.32a.833.833 0 100-1.667.833.833 0 000 1.667zM40 1.667a.833.833 0 11-1.667 0 .833.833 0 011.667 0z"/></svg><svg viewBox="0 0 50 50" id="gift" xmlns="http://www.w3.org/2000/svg"><path d="M41.303 33.184l8.62-20.195a.865.865 0 00-.782-1.203.862.862 0 00-.804.522l-8.396 19.67H13.713L8.62 9.015a.862.862 0 00-.862-.672H.862a.862.862 0 000 1.723h6.206l6.62 29.737a.862.862 0 00.861.672H40.51a.862.862 0 000-1.724H15.222l-1.13-5.05H40.51a.862.862 0 00.793-.518zM19.143 42.174a3.914 3.914 0 103.615 2.408 3.903 3.903 0 00-3.615-2.408zm0 6.094a2.19 2.19 0 110-4.38 2.19 2.19 0 010 4.38zM34.908 42.174a3.912 3.912 0 103.878 3.904 3.904 3.904 0 00-3.878-3.904zm0 6.094a2.19 2.19 0 11-.069-4.38 2.19 2.19 0 01.069 4.38z"/><path d="M15.61 13.118v12.274a2.655 2.655 0 002.646 2.655h18.54a2.655 2.655 0 002.645-2.655V13.118a2.646 2.646 0 001.931-2.534v-1.18a2.655 2.655 0 00-2.646-2.655h-4.18a3.68 3.68 0 00.595-2V3.724A3.732 3.732 0 0031.417 0h-1.026a3.723 3.723 0 00-2.87 1.37A3.689 3.689 0 0024.66 0h-1.026a3.732 3.732 0 00-3.724 3.723V4.75a3.68 3.68 0 00.595 2h-4.18a2.655 2.655 0 00-2.646 2.655v1.18a2.646 2.646 0 001.93 2.534zm1.723 12.274V13.23h6.232v13.093h-5.31a.92.92 0 01-.922-.93zm7.956.931V13.23h4.473v13.093H25.29zm0-17.85h4.473v3.034H25.29V8.473zm12.429 16.92a.924.924 0 01-.923.93h-5.309V13.23h6.232v12.162zm1.93-15.99v1.181a.922.922 0 01-.922.923h-7.24V8.473h7.24a.922.922 0 01.922.93zm-9.257-7.68h1.026a2 2 0 012 2V4.75a2 2 0 01-2 2h-3.025V3.724a2 2 0 012-2zM21.634 4.75V3.724a2.001 2.001 0 012-2h1.026a2.008 2.008 0 012.008 2v3.025h-3.034a2 2 0 01-2-2zm-6.231 4.655a.92.92 0 01.922-.931h7.24v3.034h-7.24a.922.922 0 01-.922-.923v-1.18z"/></svg><svg viewBox="0 0 20 24" id="loc" xmlns="http://www.w3.org/2000/svg"><path fill-rule="evenodd" clip-rule="evenodd" d="M3.669 16.556a9.113 9.113 0 1112.887 0L10.113 23l-6.444-6.444zm3.866-9.02a3.645 3.645 0 105.155 5.154 3.645 3.645 0 00-5.155-5.155z"/></svg><svg viewBox="0 0 71 70" id="location" xmlns="http://www.w3.org/2000/svg"><path fill-rule="evenodd" clip-rule="evenodd" d="M17.035 48.29c-10.38-10.38-10.38-27.209 0-37.589 10.38-10.38 27.208-10.38 37.588 0 10.38 10.38 10.38 27.209 0 37.588L35.829 67.083 17.035 48.29zM28.31 21.977c-4.152 4.152-4.152 10.883 0 15.035 4.152 4.152 10.883 4.152 15.035 0 4.152-4.152 4.152-10.883 0-15.035-4.151-4.152-10.883-4.152-15.035 0z"/></svg><svg viewBox="0 0 50 50" id="starsvg" xmlns="http://www.w3.org/2000/svg"><path fill-rule="evenodd" clip-rule="evenodd" d="M15.012 0a5.79 5.79 0 015.827 5.826h-1.665a4.121 4.121 0 00-4.162-4.161V0zM.363 18.977c-.333-.166-.416-.582-.333-.915.166-.333.5-.583.832-.583h17.812l5.577-14.483c.083-.25.416-.499.749-.499s.666.25.75.5l5.576 14.565h17.812c.416 0 .749.25.832.583.083.333 0 .749-.333.915l-13.983 9.655 6.742 17.646c.166.333 0 .666-.25.916-.166.083-.333.166-.5.166-.166 0-.332-.083-.499-.166L25 36.04 8.853 47.193c-.333.25-.75.25-.999 0-.25-.166-.416-.582-.25-.915l6.742-17.646L.363 18.977zm5.41 1.748l10.071 6.992c.333.166.417.582.25.915l-5.077 13.234 12.568-15.648-17.812-5.493zm18.728 13.65c.166-.083.332-.166.499-.166.166 0 .333.083.416.166L37.402 42.7 25 27.134 12.515 42.699l11.986-8.324zM38.9 41.95l-5.077-13.235c-.084-.416 0-.832.333-.998l10.07-6.992-17.811 5.493L38.9 41.95zm4.744-22.806h-12.9c-.334 0-.667-.25-.75-.5l-4.162-10.82v16.813l17.812-5.493zm-23.638-.5c-.083.25-.416.5-.75.5h-12.9l17.812 5.576V7.824l-4.162 10.82zm26.635-6.991a4.121 4.121 0 00-4.162 4.161h-1.664a5.79 5.79 0 015.826-5.826v1.665zm3.33-1.665h-1.665v1.665h1.664V9.988zM13.346 0h-1.664v1.665h1.664V0zm24.97 3.33c0 1.414 1.083 2.496 2.498 2.496.5 0 .832.333.832.833 0 .5-.333.832-.832.832-1.415 0-2.497 1.082-2.497 2.497 0 .5-.333.832-.833.832-.499 0-.832-.333-.832-.832 0-1.415-1.082-2.497-2.497-2.497-.5 0-.832-.333-.832-.832 0-.5.333-.833.832-.833 1.415 0 2.497-1.082 2.497-2.497 0-.5.333-.832.832-.832.5 0 .833.333.833.832zm-1.664 3.329c.333.25.583.5.832.832.25-.333.5-.583.833-.832-.333-.25-.583-.5-.833-.833-.25.333-.499.583-.832.833zM7.521 3.329c-1.415 0-2.497-1.082-2.497-2.497 0-.5-.333-.832-.832-.832-.5 0-.832.333-.832.832C3.36 2.247 2.278 3.33.863 3.33c-.5 0-.833.333-.833.833 0 .5.333.832.833.832 1.415 0 2.497 1.082 2.497 2.497 0 .5.332.832.832.832.5 0 .832-.333.832-.832 0-1.415 1.082-2.497 2.497-2.497.5 0 .833-.333.833-.832 0-.5-.333-.833-.833-.833zm-3.33 1.665c-.249-.333-.499-.583-.831-.832.332-.25.582-.5.832-.833.25.333.5.583.832.833-.333.25-.582.5-.832.832zM48.307 0h1.664v1.665h-1.664V0zM10.85 6.659H9.186v1.664h1.664V6.66zM.03 12.485h1.665v1.665H.03v-1.665zm8.323 1.665H6.69v1.664h1.664V14.15zM44.976 0h1.665v1.665h-1.665V0zm1.665 31.629a5.79 5.79 0 00-5.826 5.826h1.664a4.121 4.121 0 014.162-4.162V31.63zm1.665 0h1.664v1.664h-1.664V31.63zm-39.12-3.33H7.521a4.121 4.121 0 01-4.161 4.162v1.665a5.79 5.79 0 005.826-5.827zM.03 32.461h1.665v1.665H.03V32.46zm1.665 15.814H.03v1.665h1.665v-1.665zm19.144-5.826h1.664v1.665H20.84v-1.665zm10.82 5.826h-1.665v1.665h1.665v-1.665zm16.647 0h1.664v1.665h-1.664v-1.665z"/></svg><svg viewBox="0 0 22 22" id="tel" xmlns="http://www.w3.org/2000/svg"><path d="M20.912 15.92v3a2 2 0 01-2.18 2 19.79 19.79 0 01-8.63-3.07 19.5 19.5 0 01-6-6 19.79 19.79 0 01-3.07-8.67A2 2 0 013.022 1h3a2 2 0 012 1.72c.126.96.361 1.903.7 2.81a2 2 0 01-.45 2.11l-1.27 1.27a16 16 0 006 6l1.27-1.27a2 2 0 012.11-.45c.907.339 1.85.574 2.81.7a2 2 0 011.72 2.03z"/></svg><svg viewBox="0 0 24 24" id="user" xmlns="http://www.w3.org/2000/svg"><path d="M22 23v-2.333c0-1.238-.527-2.425-1.465-3.3C19.598 16.492 18.326 16 17 16H7c-1.326 0-2.598.492-3.536 1.367-.937.875-1.464 2.062-1.464 3.3V23M12 11a5 5 0 100-10 5 5 0 000 10z"/></svg></svg>